<svg xmlns="http://www.w3.org/2000/svg" viewBox="0 0 115.8 16.46"><defs><style>.cls-1{fill:#ffffff;}</style></defs><title>Asset 1</title><g id="Layer_2" data-name="Layer 2"><g id="Layer_1-2" data-name="Layer 1"><path class="cls-1" d="M14.71,16.44V2.72l-6,10.59a.63.63,0,0,1-.57.37H8a.63.63,0,0,1-.57-.36L1.28,2.7V16.44H0V.25H.93a.87.87,0,0,1,.3,0,.58.58,0,0,1,.26.24L7.91,11.6a3,3,0,0,1,.17.36v0a2.85,2.85,0,0,1,.17-.35l6.25-11a.59.59,0,0,1,.25-.25.87.87,0,0,1,.3,0H16V16.44Z"/><path class="cls-1" d="M8.08,12.34c0-.11.09-.23.14-.35a2.53,2.53,0,0,1,.16-.33l6.26-11a.42.42,0,0,1,.17-.18.62.62,0,0,1,.25,0h.8V16.3h-1V2.74c0-.19,0-.4,0-.62L8.62,13.24a.5.5,0,0,1-.45.3H8a.5.5,0,0,1-.45-.3L1.11,2.11q0,.33,0,.63V16.3h-1V.39H.93a.6.6,0,0,1,.25,0,.36.36,0,0,1,.19.18L7.79,11.67A5,5,0,0,1,8.08,12.34Z"/><polygon class="cls-1" points="24.67 16.44 24.67 0.25 34.49 0.25 34.49 1.49 26.11 1.49 26.11 7.64 33.08 7.64 33.08 8.86 26.11 8.86 26.11 15.21 34.49 15.21 34.49 16.44 24.67 16.44"/><path class="cls-1" d="M34.35.39v1H26V7.78h7v.93H26v6.64h8.38v1H24.81V.39Z"/><path class="cls-1" d="M67.89,16.44V.25h4.72A8.86,8.86,0,0,1,75,.53a4.56,4.56,0,0,1,1.7.81,3.53,3.53,0,0,1,1,1.34,4.45,4.45,0,0,1,.33,1.76,3.6,3.6,0,0,1-.23,1.26,3.68,3.68,0,0,1-.66,1.13,4.58,4.58,0,0,1-1,.89,5.54,5.54,0,0,1-.85.4A4.86,4.86,0,0,1,77.64,9.3,3.48,3.48,0,0,1,78.7,12a4.57,4.57,0,0,1-.37,1.88,3.71,3.71,0,0,1-1.09,1.42,4.8,4.8,0,0,1-1.73.89,8.24,8.24,0,0,1-2.31.3Zm5.28-1.2a4.68,4.68,0,0,0,3.08-.87,3,3,0,0,0,1-2.44A3,3,0,0,0,77,10.64a2.76,2.76,0,0,0-.79-1A3.56,3.56,0,0,0,74.93,9a6.25,6.25,0,0,0-1.75-.22H69.32v6.42Zm-.54-7.55a5.5,5.5,0,0,0,1.84-.27,3.65,3.65,0,0,0,1.23-.71,2.72,2.72,0,0,0,.7-1,3,3,0,0,0,.23-1.15,2.83,2.83,0,0,0-1-2.32,4.8,4.8,0,0,0-3-.8H69.32V7.69Z"/><path class="cls-1" d="M68,16.3V.39h4.58A9.12,9.12,0,0,1,75,.66a4.56,4.56,0,0,1,1.64.79,3.31,3.31,0,0,1,1,1.28,4.38,4.38,0,0,1,.32,1.71,3.55,3.55,0,0,1-.22,1.21,3.71,3.71,0,0,1-.64,1.08,3.91,3.91,0,0,1-1,.86,4.81,4.81,0,0,1-1.37.56A5.19,5.19,0,0,1,77.55,9.4a3.37,3.37,0,0,1,1,2.55,4.41,4.41,0,0,1-.36,1.82,3.62,3.62,0,0,1-1,1.37,4.53,4.53,0,0,1-1.68.86,8,8,0,0,1-2.27.3Zm1.15-8.46h3.45a5.52,5.52,0,0,0,1.89-.29,3.63,3.63,0,0,0,1.28-.74,2.74,2.74,0,0,0,.73-1,3.15,3.15,0,0,0,.24-1.21,2.94,2.94,0,0,0-1-2.43,4.93,4.93,0,0,0-3.14-.83H69.18Zm0,.84v6.7h4a4.81,4.81,0,0,0,3.17-.9,3.15,3.15,0,0,0,1.07-2.55,3.18,3.18,0,0,0-.28-1.36,2.92,2.92,0,0,0-.83-1A3.84,3.84,0,0,0,75,8.9a6.5,6.5,0,0,0-1.79-.22Z"/><polygon class="cls-1" points="86.54 16.44 86.54 0.25 96.35 0.25 96.35 1.49 87.98 1.49 87.98 7.64 94.95 7.64 94.95 8.86 87.98 8.86 87.98 15.21 96.35 15.21 96.35 16.44 86.54 16.44"/><path class="cls-1" d="M96.21.39v1H87.84V7.78h7v.93h-7v6.64h8.37v1H86.68V.39Z"/><path class="cls-1" d="M114.51,16.44a.76.76,0,0,1-.38-.08,1,1,0,0,1-.3-.26l-5.09-6.46a.9.9,0,0,0-.36-.3,1.55,1.55,0,0,0-.62-.09h-1.94v7.19h-1.43V.25h4.2a6.8,6.8,0,0,1,4.2,1.09,3.88,3.88,0,0,1,1.42,3.24,4.31,4.31,0,0,1-.33,1.71A4,4,0,0,1,113,7.66a5.05,5.05,0,0,1-1.47,1,6.2,6.2,0,0,1-1.58.45,1.55,1.55,0,0,1,.24.27l5.66,7.1Zm-6.06-8.33a6.23,6.23,0,0,0,1.85-.25,3.77,3.77,0,0,0,1.37-.7,3,3,0,0,0,.84-1.08,3.49,3.49,0,0,0,.29-1.44,2.76,2.76,0,0,0-1-2.4,5.3,5.3,0,0,0-3.16-.8h-2.77V8.11Z"/><path class="cls-1" d="M105.68,9.11V16.3h-1.15V.39h4.06a6.7,6.7,0,0,1,4.12,1.06,3.75,3.75,0,0,1,1.36,3.13,4.27,4.27,0,0,1-.32,1.66,4,4,0,0,1-.9,1.32,4.85,4.85,0,0,1-1.42.93,6,6,0,0,1-1.88.48,1.7,1.7,0,0,1,.48.45l5.48,6.88h-1a.71.71,0,0,1-.31-.06.9.9,0,0,1-.26-.23l-5.09-6.45a1.1,1.1,0,0,0-.41-.35,1.68,1.68,0,0,0-.68-.1Zm0-.86h2.77A6.5,6.5,0,0,0,110.34,8a4.06,4.06,0,0,0,1.42-.73,3.12,3.12,0,0,0,.88-1.13,3.59,3.59,0,0,0,.3-1.5,2.94,2.94,0,0,0-1.11-2.52,5.45,5.45,0,0,0-3.24-.82h-2.91Z"/><path class="cls-1" d="M58.63.21a.34.34,0,0,0-.12.12l-3.94,8L51.3.1h-.72L47.84,6.5l-3-6.33a.34.34,0,0,0-.12-.12.35.35,0,0,0-.16,0L43.1,0l-.19,16.26h1.27a.25.25,0,0,0,.27-.19l3.17-7.45,3.53,7.53a.34.34,0,0,0,.29.2h.16a.32.32,0,0,0,.28-.19l2.85-5.72L57,16.23c.06.13.14.2.25.2h.55L55.12,9.66l.46-.92,3,7.51a.27.27,0,0,0,.25.2h1.29L60.3.2H58.79A.39.39,0,0,0,58.63.21ZM44.28,14.81l.15-12.56V1.83l2.83,6ZM48.2,7.28l2.47-5.81.25-.59.24.59.21.52-2.7,6.29Zm3.34,7.12L49,9.07,51.7,2.82l2.48,6.24Zm7.24.59L56,8l3-6Z"/></g></g></svg>